<svg xmlns="http://www.w3.org/2000/svg" viewBox="0 0 512 512">
  <defs>
    <linearGradient id="bg" x1="0" y1="0" x2="1" y2="1">
      <stop offset="0" stop-color="#fff3c4"/>
      <stop offset="0.55" stop-color="#ffd78a"/>
      <stop offset="1" stop-color="#f5a7cc"/>
    </linearGradient>
    <linearGradient id="card" x1="0" y1="0" x2="1" y2="1">
      <stop offset="0" stop-color="#ffffff"/>
      <stop offset="1" stop-color="#fff7fb"/>
    </linearGradient>
  </defs>
  <rect width="512" height="512" rx="112" fill="url(#bg)"/>
  <path d="M126 174c0-33 27-60 60-60h140c33 0 60 27 60 60v164c0 33-27 60-60 60H186c-33 0-60-27-60-60V174z" fill="url(#card)" stroke="#7a4f12" stroke-opacity=".22" stroke-width="10"/>
  <path d="M176 178h160" stroke="#7a4f12" stroke-opacity=".35" stroke-width="18" stroke-linecap="round"/>
  <circle cx="188" cy="244" r="16" fill="#f5a7cc"/>
  <circle cx="256" cy="244" r="16" fill="#f5a7cc"/>
  <circle cx="324" cy="244" r="16" fill="#f5a7cc"/>
  <circle cx="188" cy="304" r="16" fill="#b88a2d"/>
  <circle cx="256" cy="304" r="16" fill="#b88a2d"/>
  <circle cx="324" cy="304" r="16" fill="#b88a2d"/>
  <path d="M182 360h148" stroke="#7a4f12" stroke-opacity=".45" stroke-width="18" stroke-linecap="round"/>
  <path d="M368 128c18 16 29 40 29 66" stroke="#ffffff" stroke-width="16" stroke-linecap="round" opacity=".8"/>
  <text x="256" y="92" text-anchor="middle" font-size="58" font-family="Arial, sans-serif" font-weight="800" fill="#7a4f12">₽</text>
</svg>
