<svg xmlns="http://www.w3.org/2000/svg" viewBox="0 0 512 512">
  <defs>
    <linearGradient id="bg" x1="52" y1="40" x2="464" y2="472" gradientUnits="userSpaceOnUse">
      <stop offset="0" stop-color="#ffd1e6"/>
      <stop offset="0.45" stop-color="#fff2c8"/>
      <stop offset="1" stop-color="#d7ccff"/>
    </linearGradient>
    <linearGradient id="card" x1="116" y1="112" x2="402" y2="420" gradientUnits="userSpaceOnUse">
      <stop stop-color="#ffffff"/>
      <stop offset="1" stop-color="#fff7fb"/>
    </linearGradient>
    <linearGradient id="accent" x1="142" y1="166" x2="370" y2="344" gradientUnits="userSpaceOnUse">
      <stop stop-color="#df4e94"/>
      <stop offset="1" stop-color="#8f6bff"/>
    </linearGradient>
    <filter id="shadow" x="-20%" y="-20%" width="140%" height="140%">
      <feDropShadow dx="0" dy="22" stdDeviation="22" flood-color="#aa4a86" flood-opacity="0.28"/>
    </filter>
  </defs>
  <rect width="512" height="512" rx="124" fill="url(#bg)"/>
  <circle cx="404" cy="106" r="34" fill="#fff9d8" opacity="0.95"/>
  <circle cx="104" cy="396" r="26" fill="#ffffff" opacity="0.55"/>
  <path d="M105 116c18-18 48-18 66 0l7 7 7-7c18-18 48-18 66 0 19 19 18 50-2 70l-71 70-71-70c-20-20-21-51-2-70z" fill="#fff" opacity="0.42"/>
  <g filter="url(#shadow)">
    <rect x="102" y="122" width="308" height="306" rx="54" fill="url(#card)"/>
    <rect x="134" y="168" width="244" height="40" rx="20" fill="#ffe1ef"/>
    <rect x="134" y="235" width="244" height="34" rx="17" fill="#f0eaff"/>
    <rect x="134" y="292" width="180" height="34" rx="17" fill="#e2f8ee"/>
    <path d="M158 188l18 18 38-48" fill="none" stroke="#df4e94" stroke-width="18" stroke-linecap="round" stroke-linejoin="round"/>
    <path d="M158 252l18 18 38-48" fill="none" stroke="#8f6bff" stroke-width="16" stroke-linecap="round" stroke-linejoin="round"/>
    <path d="M158 309l18 18 38-48" fill="none" stroke="#2eaf73" stroke-width="16" stroke-linecap="round" stroke-linejoin="round"/>
    <path d="M312 345c28-34 78-17 82 25 4 42-45 57-82 84-37-27-86-42-82-84 4-42 54-59 82-25z" fill="url(#accent)" opacity="0.96"/>
    <path d="M318 392c19-38 55-65 92-76" fill="none" stroke="#ffffff" stroke-width="12" stroke-linecap="round" opacity="0.85"/>
    <path d="M301 392c-16-30-40-50-68-61" fill="none" stroke="#ffffff" stroke-width="10" stroke-linecap="round" opacity="0.78"/>
  </g>
</svg>
